# xmcd CD database file
# Copyright (C) 1993-1998 Ti Kan
# 
# Track frame offsets:
#     183
#     32205
#     64438
# 
# Disc length: 1117 seconds
# 
# Revision: 1
# Processed by: cddbd v1.4b41PL1 Copyright (c) Steve Scherf et al.
# Submitted via: DiscPlay 4.0.4
# 
DISCID=27045b03
DTITLE=Grandmaster Flash and The Furious Five - The Adventures of Grandmaster 
DTITLE=Flash on the Wheels of Steel
DYEAR=1900
DGENRE=
TTITLE0=The Adventures of Grandmaster Flash on the Wheels of Steel
TTITLE1=The Message
TTITLE2=It's Nasty (Genius of Love)
EXTD=
EXTT0=
EXTT1=
EXTT2=
PLAYORDER=
